<svg xmlns="http://www.w3.org/2000/svg" xmlns:xlink="http://www.w3.org/1999/xlink" width="64.803" height="112.408" viewBox="0 0 64.803 112.408"><defs><style>.a{fill:url(#a);}.b{clip-path:url(#b);}</style><linearGradient id="a" x1="0.5" x2="0.5" y2="1" gradientUnits="objectBoundingBox"><stop offset="0" stop-color="#fd794c"/><stop offset="1" stop-color="#e7487d"/></linearGradient><clipPath id="b"><rect class="a" width="64.803" height="112.408"/></clipPath></defs><g class="b"><path class="a" d="M101.209,221.22a56.424,56.424,0,0,0,11.949-1.136c9.285-2.271,15.209-8.1,18.017-17.073,3.669-11.721,3.038-23.226-2.41-34.34a7.063,7.063,0,0,0-2.375-3.185c-.192.108-.48.2-.479.282.091,6.6-2.469,12.406-5.454,18.078-4.453,8.461-6.108,17.242-2.483,27.171-6.891-5.013-9.851-11.433-11.266-18.719a35.792,35.792,0,0,1,3.408-23.087c4.722-9.561,10.55-18.6,13.224-29.9,3.676,5.88,7.008,11.032,10.162,16.291,5.683,9.476,10.651,19.229,12.2,30.406,2.389,17.283-8.976,34.359-25.334,37.644-6.6,1.325-12.969.109-19.155-2.428" transform="translate(-81.212 -111.783)"/><path class="a" d="M34.526,0c4.113,13.543,2.025,26.373-4.417,38.623-3.816,7.257-8.068,14.3-10.172,22.324C16.7,73.276,16.752,85.23,24.263,96.227c1.189,1.742,2.747,3.228,4.084,4.873.509.626,1.759,1.011,1.318,1.975-.389.851-1.563.506-2.389.58C12.8,104.957,2.93,97.26.511,82.867c-1.41-8.392.2-16.287,3.61-23.96,4.5-10.13,11.055-18.995,17.163-28.137,4.73-7.079,9.069-14.357,11.584-22.578A44.736,44.736,0,0,0,34.526,0" transform="translate(0)"/></g></svg>